<?xml version="1.0" encoding="UTF-8" standalone="no"?>
<svg
   xmlns:dc="http://purl.org/dc/elements/1.1/"
   xmlns:cc="http://creativecommons.org/ns#"
   xmlns:rdf="http://www.w3.org/1999/02/22-rdf-syntax-ns#"
   xmlns="http://www.w3.org/2000/svg"
   xmlns:sodipodi="http://sodipodi.sourceforge.net/DTD/sodipodi-0.dtd"
   xmlns:inkscape="http://www.inkscape.org/namespaces/inkscape"
   width="744" height="796" viewBox="0 61 744 796"
   sodipodi:version="0.32"
   inkscape:version="0.46"
   sodipodi:docname="America Latina red.svg"
   inkscape:output_extension="org.inkscape.output.svg.inkscape">
  <metadata>
    <rdf:RDF>
      <cc:Work rdf:about="">
        <dc:format>image/svg+xml</dc:format>
        <dc:type rdf:resource="http://purl.org/dc/dcmitype/StillImage"/>
      </cc:Work>
    </rdf:RDF>
  </metadata>
  <g
     inkscape:label="Capa 1"
     inkscape:groupmode="layer"
     id="layer1">
    <path
       id="path2418"
       d="M 526.58839,840.90043 C 529.23703,839.45528 528.42268,838.79812 522.77422,837.82225 C 512.40778,836.0313 507.92244,831.16601 510.75344,824.78311 C 512.89835,819.94694 519.85313,817.54767 519.85313,821.64386 C 519.85313,822.7115 522.90464,827.19609 526.63439,831.6096 C 533.20499,839.38494 532.85292,842.73788 525.46583,842.73788 C 524.23104,842.73788 524.73615,841.91103 526.58839,840.90043 z M 528.74013,831.51947 C 524.94669,826.90467 522.20883,822.8154 522.65581,822.43225 C 523.10266,822.04908 528.46413,824.6073 534.56994,828.11717 C 540.67587,831.62704 548.70228,835.3797 552.40676,836.45639 C 558.86855,838.33456 558.66484,838.4444 547.38952,839.16204 C 535.72511,839.90446 535.58547,839.84726 528.74013,831.51947 z M 562.50959,837.25045 C 562.50959,836.19196 563.51981,834.79071 564.7546,834.13652 C 565.98938,833.48235 566.99973,833.81315 566.99973,834.87163 C 566.99973,835.93011 565.98938,837.33137 564.7546,837.98555 C 563.51981,838.63973 562.50959,838.30893 562.50959,837.25045 z M 500.68434,833.05556 C 499.87417,831.93179 496.70159,830.19439 493.63416,829.19468 C 487.92226,827.3331 487.48109,823.49982 492.80377,821.97893 C 494.5793,821.4716 495.14924,822.00597 494.21471,823.30204 C 493.3526,824.49784 493.46457,825.48052 494.46354,825.48578 C 495.46251,825.49103 499.31068,827.62497 503.01503,830.22784 C 507.99157,833.72458 508.7589,834.97842 505.95394,835.02958 C 503.86589,835.06764 501.49464,834.17933 500.68434,833.05556 z M 496.64965,819.37985 C 494.54417,818.36982 490.82136,818.08763 488.37669,818.75275 C 485.84204,819.44237 483.93193,819.07927 483.93193,817.90786 C 483.93193,814.01269 475.17167,808.20403 471.24516,809.49562 C 468.38889,810.43519 467.78357,809.9739 468.82374,807.65028 C 469.59499,805.92721 468.31231,802.48362 465.9336,799.89131 C 463.58118,797.32778 459.48166,790.2475 456.82355,784.15731 C 453.44852,776.42482 450.03988,772.13314 445.5246,769.93144 C 437.97221,766.24878 437.42755,764.58726 443.25319,763.00228 C 449.91149,761.19078 451.15032,751.129 445.54571,744.38195 C 442.87078,741.16175 441.46325,737.38066 442.26913,735.58031 C 443.2202,733.45586 440.59532,729.72805 434.23968,724.17673 C 426.21719,717.16968 424.7337,714.62249 424.37493,707.23928 C 424.14266,702.45974 422.78504,697.34329 421.35805,695.8694 C 419.56053,694.0127 419.1938,687.34862 420.16433,674.17321 C 421.21613,659.8943 420.60348,651.08158 417.70513,638.79851 C 413.40076,620.55743 411.20226,586.57074 412.32066,555.56333 C 412.55925,548.94783 411.55901,539.86525 410.0979,535.37985 C 406.53976,524.45726 390.16873,510.66977 369.93539,501.5556 C 355.46386,495.03684 353.42889,493.36553 347.77183,483.35298 C 344.34588,477.28933 337.79841,468.22688 333.22196,463.2142 C 328.64539,458.20152 323.6696,450.84026 322.16464,446.85584 C 317.38802,434.20942 308.9677,421.50252 303.22775,418.27857 C 297.8544,415.26051 292.06579,403.15102 294.42933,399.87275 C 295.06763,398.98742 299.61072,400.02143 304.52508,402.17056 C 314.87295,406.6959 316.60451,406.19444 319.87123,397.72649 C 321.59988,393.24573 325.40735,389.99116 333.44387,386.12495 C 342.46761,381.78378 345.12535,379.28776 347.27595,373.13449 C 350.45143,364.04899 352.46657,363.6353 356.9936,371.13953 C 361.84933,379.18884 372.41481,385.16069 379.21251,383.6982 C 382.24734,383.04528 386.8579,383.48708 389.45814,384.68001 C 393.3202,386.45176 393.75063,387.54632 391.80854,390.65695 C 390.50096,392.75136 389.94985,395.1845 390.58386,396.06395 C 391.218,396.9434 387.84854,398.66154 383.09631,399.88204 C 372.64001,402.56751 371.16651,404.07479 366.36246,416.99845 C 362.77033,426.66156 362.79459,427.41689 366.91787,434.31906 C 372.16434,443.10148 382.99597,450.31848 388.93294,448.9876 C 392.00151,448.29973 394.01424,449.41217 395.80847,452.78775 C 397.20375,455.41274 400.36508,458.10998 402.83364,458.7816 C 409.221,460.51942 412.71064,471.24584 410.90921,483.60456 C 409.8085,491.15677 410.31323,495.46163 412.77067,499.48229 C 415.77454,504.39662 415.76923,505.63106 412.72265,510.79525 C 410.84185,513.98343 407.65676,518.32401 405.64479,520.44098 C 402.061,524.21174 402.08311,524.22025 406.73285,520.8606 C 411.33142,517.53787 411.58858,517.57454 415.00114,522.03913 C 416.93843,524.5735 420.02318,531.57043 421.85633,537.58789 C 423.68936,543.60533 427.79836,551.46102 430.98724,555.04494 C 437.73324,562.62647 438.09063,565.61892 433.21556,573.70019 C 430.39973,578.36786 430.11754,581.21097 431.87943,587.16129 C 433.79561,593.6322 433.37618,595.85587 428.93066,602.79898 C 422.09796,613.47009 422.38116,633.90003 429.52574,645.73125 C 432.14784,650.07351 433.75429,655.39283 433.09563,657.55194 C 432.43698,659.71106 433.38856,663.9161 435.21022,666.89645 C 438.08532,671.60033 438.1001,672.86769 435.32219,676.50203 C 432.5449,680.13549 432.5612,681.67219 435.44553,688.13021 C 437.2735,692.22299 439.79981,701.5751 441.05974,708.9127 C 442.64268,718.13156 446.41654,727.39599 453.2735,738.89598 C 462.82674,754.91798 465.23805,763.24864 467.19316,786.98597 C 467.49822,790.69065 467.85332,794.38986 467.9821,795.2064 C 468.111,796.02295 470.72261,797.66994 473.78587,798.86637 C 476.84914,800.06278 479.95158,802.65181 480.68024,804.61973 C 483.28781,811.6622 502.26476,816.68922 507.92535,811.83694 C 509.36587,810.60208 510.89371,810.47668 511.65384,811.53089 C 512.36203,812.51328 510.13724,815.09436 506.70965,817.26664 C 502.17048,820.14341 499.43793,820.71741 496.64965,819.37985 z M 465.97126,816.88361 C 465.97126,816.39161 468.24445,814.95079 471.02274,813.68177 C 475.60311,811.58959 475.78685,811.67299 472.99289,814.57632 C 470.12411,817.55742 465.97126,818.92204 465.97126,816.88361 z M 489.23944,809.80014 C 486.60205,808.67992 483.38018,805.76164 482.07981,803.31513 C 480.77944,800.8686 477.63328,798.30039 475.08852,797.60803 C 472.54363,796.91564 470.356,795.75799 470.22723,795.03545 C 470.09833,794.31293 469.74335,790.69065 469.43816,786.98597 C 467.48318,763.24864 465.07187,754.91798 455.51863,738.89598 C 448.66154,727.39599 444.88769,718.13156 443.30487,708.9127 C 442.04494,701.5751 439.51851,692.22299 437.69053,688.13021 C 434.80621,681.67219 434.78991,680.13549 437.56719,676.50203 C 440.34523,672.86769 440.33045,671.60033 437.45535,666.89645 C 435.63357,663.9161 434.68211,659.71106 435.34076,657.55194 C 435.99942,655.39283 434.39297,650.07351 431.77075,645.73125 C 424.62629,633.90003 424.34309,613.47009 431.17566,602.79898 C 435.62131,595.85587 436.04061,593.6322 434.12456,587.16129 C 432.36267,581.21097 432.64486,578.36786 435.46069,573.70019 C 437.42401,570.44555 439.03033,566.03809 439.03033,563.90579 C 439.03033,558.27895 446.36624,555.73109 458.67225,557.08389 C 465.9767,557.88684 470.61052,557.44017 473.37314,555.66684 C 476.95478,553.36775 478.63124,554.08831 488.31426,562.08886 C 495.49676,568.02336 503.8439,572.54543 512.7596,575.33208 C 527.89281,580.06205 529.71952,582.15894 526.21471,590.77727 C 523.24028,598.09146 524.93582,599.73119 537.21226,601.41246 C 545.92828,602.60611 547.27351,602.19979 553.48901,596.49616 C 557.21548,593.07651 560.3049,588.42166 560.35431,586.15199 C 560.43544,582.42901 560.77223,582.54361 563.79733,587.3237 C 568.00262,593.96883 565.62265,598.51377 552.91705,608.10052 C 547.93849,611.85704 543.65409,616.62021 543.39616,618.68535 C 543.13823,620.75047 542.3709,623.73919 541.69077,625.32691 C 534.90432,641.17041 534.34891,645.63382 538.1737,653.58819 C 539.60651,656.56792 540.57224,660.08957 540.31975,661.41408 C 540.06726,662.73859 542.30392,664.77657 545.29023,665.94292 C 548.27641,667.1093 552.88988,671.78826 555.54205,676.34063 C 559.49157,683.11955 559.90948,685.47355 557.851,689.34632 C 554.66225,695.3457 542.46871,700.38291 531.13476,700.38291 C 521.09638,700.38291 518.60608,702.48759 522.07336,708.04117 C 524.2136,711.46925 522.77397,716.98463 518.63515,721.21333 C 518.29976,721.55598 514.78446,720.39976 510.82345,718.64391 C 501.36789,714.45244 498.02054,717.12235 502.79931,725.04405 C 504.74304,728.2661 508.4388,731.47515 511.01212,732.17527 C 515.4349,733.37855 515.48279,733.64533 511.887,737.05126 C 509.79263,739.03504 508.70608,742.04594 509.46937,743.75087 C 510.28952,745.58303 508.46028,749.5394 504.98947,753.44012 C 499.34745,759.78105 499.26695,760.22068 502.88385,764.95251 C 504.95206,767.65836 508.17822,770.37681 510.05308,770.99352 C 516.82954,773.22261 517.93568,780.81863 512.74633,789.48905 C 510.08594,793.93399 507.7823,800.60189 507.62698,804.30658 C 507.37424,810.33859 506.64937,811.08389 500.68978,811.43965 C 497.02953,811.65816 491.87683,810.92038 489.23944,809.80014 z M 462.60369,804.30658 C 461.84053,803.24809 462.28599,802.38206 463.59369,802.38206 C 464.90139,802.38206 465.97126,803.24809 465.97126,804.30658 C 465.97126,805.36506 465.5258,806.23109 464.98126,806.23109 C 464.43672,806.23109 463.36685,805.36506 462.60369,804.30658 z M 561.94825,783.78689 C 563.49176,783.25301 566.01743,783.25301 567.56095,783.78689 C 569.10446,784.32077 567.84162,784.75759 564.7546,784.75759 C 561.6677,784.75759 560.40473,784.32077 561.94825,783.78689 z M 448.01072,781.32601 C 448.01072,780.33 448.85262,779.06904 449.88154,778.5239 C 450.91059,777.97874 451.75248,778.79366 451.75248,780.33483 C 451.75248,781.87599 450.91059,783.13694 449.88154,783.13694 C 448.85262,783.13694 448.01072,782.32203 448.01072,781.32601 z M 564.19338,779.93786 C 565.73689,779.40398 568.26256,779.40398 569.80608,779.93786 C 571.34959,780.47175 570.08662,780.90857 566.99973,780.90857 C 563.9127,780.90857 562.64986,780.47175 564.19338,779.93786 z M 575.41878,779.93786 C 576.96229,779.40398 579.48796,779.40398 581.03147,779.93786 C 582.57486,780.47175 581.31202,780.90857 578.22512,780.90857 C 575.1381,780.90857 573.87526,780.47175 575.41878,779.93786 z M 572.05108,776.03678 C 574.21205,775.55273 577.74794,775.55273 579.90891,776.03678 C 582.06975,776.52086 580.3018,776.91692 575.97999,776.91692 C 571.65819,776.91692 569.89024,776.52086 572.05108,776.03678 z M 440.52708,749.13722 C 437.8001,746.79959 438.97586,744.74956 442.39803,745.87525 C 444.25014,746.48453 445.76559,747.75637 445.76559,748.70161 C 445.76559,750.71928 442.67276,750.97648 440.52708,749.13722 z M 431.16226,733.07999 C 428.92939,728.83527 427.65038,724.89259 428.32015,724.31847 C 429.76092,723.08341 439.03033,735.46036 439.03033,738.61918 C 439.03033,743.25931 435.03886,740.44927 431.16226,733.07999 z M 551.9824,660.98024 C 536.00869,654.75557 534.68822,649.03824 543.74798,625.32691 C 544.67416,622.90289 545.20594,622.98219 547.06538,625.82157 C 548.28336,627.68136 553.51947,631.0334 558.70111,633.27055 C 563.88275,635.5077 572.66853,640.33667 578.22512,644.00157 L 588.32796,650.66506 L 579.34756,643.58853 C 574.40843,639.69644 565.82105,634.50213 560.26446,632.0456 C 542.59546,624.23417 541.23229,616.88265 555.80365,607.9884 C 559.5291,605.71438 564.1034,601.32401 565.96865,598.232 C 568.99742,593.2114 568.99375,592.00299 565.93479,586.93224 C 564.05095,583.80934 562.50959,579.98921 562.50959,578.44299 C 562.50959,574.91635 552.90542,568.17728 538.27025,561.43481 C 529.21567,557.26331 526.69126,554.9893 525.45167,549.88773 C 524.6027,546.39379 522.06527,540.78695 519.81281,537.42804 C 516.64378,532.70218 516.37372,531.1051 518.61897,530.36656 C 520.2148,529.84162 522.18609,527.13867 522.99967,524.35998 C 525.32492,516.41815 515.45486,503.75982 504.97114,501.23839 C 497.90125,499.53798 496.15579,497.99 493.44346,491.01501 C 490.81783,484.26282 488.37416,481.9818 479.75545,478.23798 C 473.98503,475.73138 465.06884,472.71226 459.94191,471.52881 C 452.17684,469.73646 449.83971,467.99541 445.9477,461.1036 C 443.37792,456.55315 441.27546,451.85555 441.27546,450.66449 C 441.27546,449.47342 440.29532,447.97961 439.09731,447.34493 C 436.45335,445.94418 415.46303,453.44764 411.98969,457.03514 C 408.56323,460.57426 399.91368,457.04967 396.56519,450.7498 C 394.63359,447.11568 392.80637,446.20512 389.02114,446.99017 C 382.89777,448.26011 373.71999,442.16187 368.53278,433.37651 C 365.08572,427.53853 365.11833,426.43574 369.04421,416.0559 C 372.91929,405.81039 373.98613,404.7301 383.12171,401.80183 C 389.50123,399.75692 393.93058,399.27823 395.61285,400.45189 C 398.98092,402.80169 399.83609,401.40514 402.92816,388.50592 C 405.0727,379.55947 404.90892,376.62131 401.92439,370.49822 C 398.76458,364.01546 398.73867,362.82067 401.69742,360.01814 C 404.1929,357.65434 404.44362,355.94631 402.68932,353.25913 C 399.8534,348.91523 404.09559,345.72885 410.85006,347.12929 C 413.25543,347.62799 416.70312,346.98973 418.51176,345.71092 C 421.12034,343.86642 422.02314,343.95501 422.87982,346.13951 C 423.47377,347.65403 426.453,350.87395 429.50034,353.29487 C 434.77942,357.48875 435.37362,357.55337 442.08702,354.66357 C 445.96248,352.99544 450.76273,349.86725 452.75449,347.71209 C 456.03094,344.1666 456.05104,343.0852 452.96566,336.3521 C 449.04533,327.79676 450.11065,325.79547 456.92174,328.92022 C 460.94683,330.76681 463.68038,330.17995 473.75403,325.30649 C 488.15541,318.33939 491.96554,319.94812 488.26599,331.43369 C 486.48212,336.97217 486.76039,339.73289 489.57306,344.39536 C 493.96273,351.672 497.72685,353.06618 504.52341,349.93286 C 512.74519,346.1425 526.39694,343.91186 543.04826,343.63804 L 558.38556,343.38582 L 564.04312,335.20665 C 567.15478,330.7081 569.15766,327.02747 568.49383,327.02747 C 567.83012,327.02747 565.01581,330.4916 562.23979,334.72551 C 557.71958,341.61982 556.29207,342.42356 548.56807,342.42356 L 539.94354,342.42356 L 543.36115,336.75819 C 545.914,332.5263 546.21262,329.81619 544.54097,326.04737 C 541.94996,320.20544 545.01069,313.55588 550.29078,313.55588 C 552.1271,313.55588 558.0393,317.04023 563.42895,321.29887 C 570.58605,326.95412 573.94679,331.48766 575.8928,338.1128 C 577.35834,343.10182 579.59715,347.73462 580.86808,348.40793 C 584.22162,350.18457 579.4129,357.00519 568.57761,365.8409 C 561.29199,371.78193 560.01601,373.76449 562.26064,375.65634 C 564.49414,377.53884 565.84961,377.231 568.84287,374.16145 C 574.33678,368.52745 585.11267,361.6687 588.47038,361.6687 C 590.06773,361.6687 592.99729,363.0595 594.98032,364.75936 C 599.74393,368.84284 595.28564,373.88488 587.97108,372.68628 C 585.04481,372.20675 583.42345,372.64107 584.18686,373.69995 C 584.98326,374.80453 583.59595,375.02847 580.75131,374.25452 C 572.81096,372.09418 575.40614,375.13114 584.18838,378.27664 C 591.92173,381.04648 592.73368,380.98354 598.22,377.18888 C 610.19959,368.9033 612.95084,368.50818 623.49712,373.55884 C 630.34233,376.83705 633.08385,379.33298 632.73872,381.97242 C 631.77893,389.3112 633.79798,390.9363 639.73343,387.60254 C 644.45091,384.95283 647.68743,384.82699 663.47108,386.67951 C 680.26052,388.65007 682.45953,389.43562 690.5145,396.34044 C 696.49456,401.46667 703.22136,404.83799 711.67137,406.9437 C 723.01708,409.77105 724.24946,410.63336 726.30718,417.18387 C 729.29058,426.6815 725.79512,437.22082 716.34121,447.23202 C 712.30285,451.50856 707.35285,457.78669 705.34126,461.18341 C 703.32979,464.58014 699.05209,469.61537 695.83528,472.37285 C 690.39027,477.04045 690.08723,478.20801 691.4446,489.29115 C 694.0964,510.9431 681.74098,551.3383 669.82432,559.97713 C 665.94444,562.78978 662.62438,563.45029 656.47182,562.63351 C 651.41478,561.96214 647.67125,562.39524 646.6829,563.76599 C 645.80284,564.98676 640.90023,567.56193 635.78847,569.4886 C 630.67658,571.41527 623.06619,575.50159 618.87631,578.5693 C 611.62444,583.87896 611.38155,584.46693 613.82193,590.80558 C 616.63573,598.11392 614.74091,606.76714 608.71067,614.1471 C 606.76113,616.53311 605.16593,620.59244 605.16593,623.16784 C 605.16593,625.74322 602.83714,630.5302 599.99061,633.80557 C 597.1442,637.08091 591.96268,644.09091 588.47632,649.38332 C 581.21775,660.40159 574.58029,665.68592 568.12229,665.58802 C 565.6526,665.55057 558.38973,663.47708 551.9824,660.98024 z M 531.63974,598.95006 C 525.96386,598.01292 525.63554,596.93341 528.83377,589.7227 C 532.2016,582.12936 528.51115,578.33082 513.0802,573.50778 C 504.39792,570.79405 495.65624,566.17313 489.24828,560.90989 L 479.12826,552.59775 L 484.77091,543.05254 C 491.94241,530.92091 500.31407,527.30752 510.64223,531.88586 C 514.47346,533.58415 517.63643,535.16793 517.67131,535.40537 C 517.70606,535.64282 519.55792,540.60025 521.78662,546.4219 C 525.4063,555.87704 527.13672,557.65759 538.00019,563.10521 C 559.24742,573.75989 560.87977,575.33235 559.10613,583.43674 C 556.21587,596.64317 547.49631,601.5681 531.63974,598.95006 z M 432.17653,553.97711 C 429.49933,550.75422 425.81558,543.21505 423.99026,537.22335 C 422.16506,531.23166 418.69665,523.95183 416.28281,521.04594 C 412.29728,516.24797 412.19441,515.26468 415.16265,510.34425 C 417.7184,506.10763 417.86208,504.09954 415.82168,501.13641 C 414.38634,499.05213 413.07788,490.41858 412.91398,481.95072 C 412.75007,473.48288 412.24496,464.86593 411.79141,462.80194 C 411.18874,460.05875 413.38269,457.91462 419.94723,454.83139 C 435.33002,447.60638 438.29282,447.41112 440.06734,453.50538 C 442.71206,462.58838 450.28265,471.30432 456.61516,472.55685 C 459.9088,473.20832 468.37423,475.90841 475.42732,478.55704 C 486.28005,482.63266 488.65395,484.44655 490.87406,490.35978 C 494.43296,499.83874 496.65446,501.86342 504.96167,503.19934 C 510.18602,504.03951 513.41206,506.3415 517.13423,511.88543 C 525.21814,523.92602 519.89811,533.59144 507.78975,528.86226 C 499.58263,525.6568 489.56194,531.14997 482.82402,542.54803 C 475.89654,554.26688 470.81018,556.81492 457.70689,555.13053 C 450.41723,554.19347 446.26704,554.65662 442.37755,556.84124 C 437.28803,559.69986 436.82134,559.56884 432.17653,553.97711 z M 305.44836,400.79022 C 301.74401,399.10521 298.35041,397.45768 297.90697,397.12905 C 297.46353,396.80042 299.34635,393.82822 302.0909,390.52418 L 307.08109,384.51685 L 302.41012,383.4698 C 291.40903,381.0037 295.98105,368.45304 315.61931,347.20939 C 321.5032,340.84448 327.47392,331.95483 328.88752,327.45462 C 331.35708,319.59267 330.35723,307.9669 326.70696,302.10112 C 325.4905,300.14653 328.61341,296.27999 337.09767,289.23597 C 343.76899,283.69706 349.22739,278.20148 349.22739,277.02355 C 349.22739,273.5296 360.73637,265.44306 365.70912,265.44306 C 368.2396,265.44306 373.04351,263.198 376.38467,260.45401 C 379.93118,257.5415 384.18715,255.8134 386.61047,256.3021 C 390.06801,256.99942 389.72971,257.5034 384.58459,259.31987 C 380.76575,260.66812 376.55881,264.76321 373.56366,270.0478 L 368.71943,278.59511 L 373.16938,287.89632 C 375.82333,293.4438 379.81808,298.10367 383.06775,299.44287 C 392.05307,303.14581 408.24376,308.66513 410.81114,308.9005 C 412.13161,309.02156 414.55517,309.2525 416.19675,309.41373 C 418.27166,309.6175 418.75667,311.36492 417.7879,315.14607 C 417.02133,318.13762 417.44632,322.95748 418.73228,325.85688 C 420.35402,329.51329 420.35276,332.27798 418.72824,334.88008 C 416.90772,337.79598 417.17234,338.89034 419.91639,339.79295 C 423.03172,340.81773 422.97713,341.25358 419.45197,343.50028 C 417.25474,344.90057 413.43653,345.62555 410.96696,345.11137 C 408.49739,344.59715 404.56747,345.37456 402.23387,346.83892 C 398.8634,348.95396 398.48453,350.25737 400.39137,353.17818 C 402.20974,355.96342 401.98201,357.62202 399.45229,360.01814 C 396.49392,362.82034 396.51666,364.00959 399.6512,370.44041 C 402.62992,376.55172 402.77702,379.4966 400.58105,389.06461 C 398.29953,399.00595 397.56379,400.07923 394.70904,397.63208 C 392.17186,395.45713 392.00239,393.94242 393.94764,390.8266 C 396.07044,387.42643 395.60691,386.34529 390.89044,383.69619 C 387.24258,381.64727 383.10313,380.9931 378.85146,381.79359 C 372.21148,383.04373 369.66912,381.45965 354.44442,366.58633 C 351.75724,363.96118 346.70588,361.30219 343.21902,360.67747 C 339.73228,360.05276 331.49963,357.39967 324.92435,354.78169 C 318.34895,352.16374 313.48387,350.73562 314.11282,351.60807 C 315.61476,353.69114 335.21788,361.11129 342.91446,362.50999 L 348.9495,363.60673 L 345.69908,371.78394 C 343.08127,378.36971 340.29969,380.99663 331.40637,385.28204 C 323.1813,389.24538 319.70556,392.31307 317.78343,397.30547 C 314.85551,404.91055 314.6403,404.97135 305.44836,400.79022 z M 430.36207,351.88226 C 425.92287,348.33703 424.58673,345.69133 425.31489,341.88888 C 425.4726,341.06557 424.09527,339.89647 422.25428,339.29087 C 419.76475,338.47195 419.47181,337.28502 421.11124,334.65914 C 422.57008,332.32246 422.52484,329.34581 420.97741,325.85688 C 419.69145,322.95748 419.25104,318.19784 419.99866,315.27987 C 421.04679,311.18896 420.318,309.49738 416.81471,307.89018 C 414.31582,306.7438 411.45223,306.03406 410.45098,306.31298 C 409.44973,306.59188 404.10482,305.20991 398.57337,303.24188 C 393.04193,301.27387 386.41927,298.97968 383.85631,298.14365 C 381.12288,297.25201 377.51798,292.85626 375.13637,287.51062 C 371.14351,278.54813 371.15501,278.25889 375.83824,269.99584 C 381.88996,259.31809 385.05533,259.20472 382.80666,269.74627 C 381.74817,274.7077 381.9865,279.3704 383.4154,281.6591 C 385.69818,285.31551 385.88168,285.29437 390.03566,280.89684 C 392.99328,277.76586 393.58963,275.75809 391.97345,274.37266 C 388.1172,271.06703 389.27831,268.31986 396.45348,263.77244 C 403.903,259.05116 409.66596,259.53576 416.09426,265.42396 C 420.8077,269.74128 445.97398,275.57715 453.18668,274.02538 C 456.60935,273.28898 463.63009,275.02289 473.36341,279.00837 C 487.90747,284.96372 496.35142,290.46172 490.95355,290.46172 C 489.57382,290.46172 486.25149,294.46206 483.57037,299.35134 C 479.64967,306.50142 479.20813,308.94417 481.31387,311.83455 C 485.37396,317.40754 484.70153,318.35864 472.76314,323.92852 C 463.51092,328.24522 460.77281,328.76245 456.80662,326.94286 C 449.1453,323.42809 446.58512,327.32746 450.68299,336.27 C 454.62808,344.87909 453.12312,347.76288 442.14869,352.62373 C 435.55863,355.54268 434.89315,355.50083 430.36207,351.88226 z M 289.45544,292.1165 C 282.54945,289.08618 280.47277,287.15278 281.28029,284.50542 C 282.27181,281.25523 282.89368,281.19185 288.67004,283.75242 C 294.19807,286.20288 295.96172,286.19562 302.94707,283.6937 C 313.9982,279.73556 320.10072,280.12896 327.61608,285.28408 C 333.6817,289.44476 333.84017,289.90533 330.26207,292.97259 C 324.97642,297.50347 321.55843,297.14841 324.53677,292.37787 C 326.57768,289.10893 326.06221,288.17565 321.1577,286.2601 C 313.60557,283.31045 303.20702,286.23837 303.19375,291.31819 C 303.1801,296.54159 299.96582,296.72837 289.45544,292.1165 z M 269.55193,282.78583 C 266.01654,279.62254 261.37463,276.55847 259.23641,275.97677 C 254.7325,274.7514 251.72497,269.34881 254.31206,267.13106 C 255.28563,266.29647 260.19937,266.50945 265.23139,267.60435 C 276.11583,269.97264 282.45997,277.3838 279.44372,284.20706 C 278.39104,286.58865 277.1809,288.53721 276.75477,288.53721 C 276.32864,288.53721 273.08732,285.94909 269.55193,282.78583 z M 261.12302,265.05599 C 256.49919,264.00307 250.15947,260.53491 247.0291,257.34582 L 241.33931,251.54944 L 247.16571,246.92075 C 252.54209,242.64947 263.02139,237.78909 274.01729,234.46671 C 276.87305,233.60387 277.28162,233.04659 275.13986,232.93578 C 270.62369,232.70212 252.1521,240.54504 247.26276,244.77224 C 242.93653,248.51258 238.2097,247.37859 240.1413,243.0638 C 240.89296,241.38469 238.78065,238.96914 234.7011,236.84245 L 228.03218,233.36593 L 233.0642,229.44689 C 241.71615,222.7084 275.37466,221.61077 278.22334,227.97421 C 278.84231,229.35689 277.90046,238.13652 276.13024,247.48449 C 274.36014,256.83247 272.908,265.13033 272.90332,265.92419 C 272.89334,267.62337 272.16013,267.56934 261.12302,265.05599 z M 221.87747,244.93999 C 219.81204,244.22295 220.00653,242.83826 222.65984,239.36696 C 226.03449,234.95196 226.48501,234.87861 232.86339,237.70604 C 238.29791,240.11512 239.03921,241.17759 236.85752,243.43101 C 234.23365,246.14115 227.33814,246.83574 221.87747,244.93999 z M 206.56898,238.76349 C 202.81181,236.79941 198.00334,232.92354 195.8837,230.15043 C 193.76406,227.37731 188.94434,223.74068 185.17327,222.06903 C 178.89665,219.2867 177.49134,219.29989 168.55606,222.22507 L 158.79531,225.42047 L 128.84837,212.98105 C 110.42726,205.32925 96.13082,198.03 91.702714,194.01582 C 84.836907,187.79181 84.61477,187.11592 86.899341,179.40057 C 88.992192,172.33264 88.636783,170.14607 84.084853,162.0851 C 81.219436,157.01079 74.958776,149.2169 70.172273,144.76532 C 65.385758,140.31376 62.013209,135.91746 62.677713,134.99579 C 63.342216,134.07412 59.97054,127.86238 55.185099,121.19193 C 49.748689,113.6141 45.911975,105.49679 44.958863,99.556326 C 43.73707,91.941211 42.313473,89.611387 37.806633,87.851139 C 33.029292,85.985234 31.693423,86.223036 28.958031,89.42633 C 25.105471,93.937863 26.200676,98.700794 34.719142,114.48076 C 38.180771,120.89321 41.758143,130.39922 42.66887,135.60523 C 43.579598,140.81124 46.269622,148.33863 48.646685,152.33279 C 54.277038,161.79336 50.641585,161.62644 41.762781,152.01673 C 36.526089,146.34893 35.111794,143.24051 36.152495,139.68609 C 37.263674,135.89097 36.170705,134.06329 30.726839,130.61315 C 22.472137,125.3816 20.725078,122.00681 23.757293,117.15006 C 25.52552,114.31785 24.714715,111.21185 20.224176,103.61551 C 15.61084,95.811455 14.704094,92.194472 15.873518,86.261023 C 17.298264,79.032147 17.665742,78.76535 26.197833,78.76535 C 31.566116,78.76535 40.29115,81.035548 48.38723,84.538892 C 58.770269,89.031835 64.702235,90.312421 75.131615,90.312421 C 82.502709,90.312421 89.157993,89.446391 89.92113,88.387911 C 92.01767,85.480006 101.74416,86.079845 107.81861,89.491673 C 110.78397,91.157228 113.83653,94.964572 114.6021,97.952425 C 115.36765,100.94029 117.89546,104.85999 120.21946,106.66288 C 124.11045,109.68138 124.85076,109.69718 129.57206,106.86243 C 140.09165,100.54628 147.21502,104.60229 152.61494,119.98295 C 156.13122,129.99836 161.73176,136.50073 166.84187,136.50073 C 169.06119,136.50073 169.58941,137.57574 168.49674,139.86862 C 158.85636,160.09798 158.04048,164.59917 161.77483,176.95277 C 168.43639,198.9899 177.69469,205.58254 196.99729,202.03396 C 211.5459,199.35933 220.28303,193.93976 223.49478,185.5976 C 225.53443,180.29971 227.73457,178.54842 234.32047,176.98041 C 252.96026,172.54253 256.52914,175.03679 250.20483,188.08187 C 247.5567,193.54428 244.49963,197.54186 243.41156,196.96536 C 242.32337,196.38888 238.60007,197.64647 235.13746,199.75999 C 231.67499,201.8735 226.16667,204.17831 222.89704,204.88179 C 215.26289,206.52424 212.07515,209.89697 212.81241,215.55147 C 213.2312,218.76216 212.10826,220.26712 208.91016,220.78162 C 203.58976,221.63755 198.73605,226.48213 198.9845,230.68854 C 199.08206,232.33859 200.17644,231.30703 201.41666,228.3962 C 202.73283,225.30734 205.34873,223.10379 207.69976,223.10379 C 213.32409,223.10379 216.81765,218.87142 215.30005,213.89651 C 214.2988,210.61473 215.32924,209.27412 220.03029,207.74199 C 228.25978,205.05989 230.94203,205.28431 229.48761,208.53328 C 228.81051,210.04583 227.5507,214.50871 226.68796,218.45078 C 225.23202,225.10344 225.46442,225.54083 229.92398,224.54116 C 232.56642,223.94879 234.68707,224.03258 234.6364,224.72734 C 234.48576,226.7947 217.44585,242.34953 215.34036,242.34172 C 214.27327,242.33778 210.32616,240.72755 206.56898,238.76349 z M 388.9917,203.66338 C 386.78372,202.56186 382.17619,202.18796 378.75289,202.83249 C 375.32959,203.47701 370.06416,203.15929 367.05195,202.12642 C 362.20873,200.46572 362.63751,200.26978 370.75845,200.43252 C 382.69469,200.67171 385.88105,199.00538 382.83054,194.1193 C 380.76259,190.80706 381.26719,190.38708 387.31461,190.38708 C 393.76781,190.38708 394.12886,190.79492 394.12886,198.08513 C 394.12886,202.31906 393.87624,205.75685 393.56764,205.72466 C 393.25891,205.69247 391.1998,204.7649 388.9917,203.66338 z M 436.78533,203.85866 C 434.26003,202.45972 435.38322,201.99309 441.27546,201.99309 C 447.16769,201.99309 448.29089,202.45972 445.76559,203.85866 C 443.91348,204.88473 441.89291,205.72423 441.27546,205.72423 C 440.65813,205.72423 438.63744,204.88473 436.78533,203.85866 z M 396.37399,196.88231 C 396.37399,190.15942 396.61827,189.94784 403.09952,191.05901 C 406.79869,191.6932 412.50327,193.71628 415.77656,195.55476 L 421.72781,198.89743 L 410.73469,201.34092 C 395.91804,204.63429 396.37399,204.77586 396.37399,196.88231 z M 347.59542,186.32097 C 343.61077,185.33402 339.32246,182.87965 338.06581,180.8668 C 335.68205,177.04859 316.23765,168.57337 305.01288,166.46002 C 301.11606,165.72635 295.20513,166.41921 290.26448,168.18879 C 280.74902,171.59691 279.62999,171.73591 279.62999,169.50973 C 279.62999,165.48151 297.4979,161.05158 310.36386,161.89 C 322.66873,162.69185 329.55817,164.93664 353.71752,176.01613 C 373.5758,185.12314 373.59766,185.14049 367.18793,186.70709 C 359.73259,188.52925 356.23221,188.46027 347.59542,186.32097 z"
       style="fill:#d90000;fill-opacity:0.9"
       sodipodi:nodetypes="csssssccssssccsssccssssssccsssssssssssssssssssssssssssssssssssssssssssssssssssssssssssssssccssccssssssssssssssssssssssssssssssssssssssssssssssccsssccssccsssccssccssccssccssccssccssscccsssssssssssssssssssssssssssssssssssssssscccsscccsssssssssssssssssssssssssssssssssssssccsscccsssssccsssssssssssssssssccscccssssssssscccsssssssssssssssssssssscccssccssssssssssssssssssssssssssccssssssssccssssscccccsssscccsssccsssccsscccsssssssssssssssssssssssssssssssssssssssssssssssssccsssssssccsssccscccccsssssssc" />
  </g>
</svg>
